# xmcd
# 
# Track frame offsets:
#     182
#     17945
#     32345
#     48275
#     64360
#     82535
#     99782
#     117367
#     136885
#     151085
#     168447
#     184870
#     203457
#     224132
#     240545
#     260165
#     280370
#     293657
#     309445
#     326047
# 
# Disc length: 4576
# 
# Revision: 7
# Processed by: cddbd v1.5.2PL0 Copyright (c) Steve Scherf et al.
# Submitted via: fre:ac v1.0.17
# 
DISCID=1011de14,1511de14
DTITLE=Various Artist - Black and Beautiful Vol. 4 [CD 1)
DYEAR=1998
DGENRE=Soul
TTITLE0=Pappa Bear - Cherish
TTITLE1=Sweetbox - Everything's Gonna Be Alright
TTITLE2=Blackstreet - Money Can't Buy Me Love
TTITLE3=Young Deenay - Walk On By
TTITLE4=Down Low - Johnny B.
TTITLE5=Jonestown - Sweet Thang
TTITLE6=Shola Ama - You're The One I Love
TTITLE7=Something For The People feat. Trina and Tamara - My Love Is The Shhh!
TTITLE8=Lutricia McNeal - My Side Of Town
TTITLE9=U.B.F. feat. Nana, Papa Bear, Cottura, Alex and Aleks, Van Der Toorn - Bible In My Hand
TTITLE10=Awesome - Rumours
TTITLE11=Spice 1 - Playa Man
TTITLE12=Luniz - Jus Mee and U
TTITLE13=Busta Rhymes - Dangerous
TTITLE14=Missy Elliott feat. Da Brat - Sock It 2 Me
TTITLE15=Joe - Good Girls
TTITLE16=Foxy Brown feat. Jay Z - I'll Be
TTITLE17=Club Unique - Just The Way It Is
TTITLE18=Queen Latifah - It's Alright
TTITLE19=Notorious B.I.G. - Hypnotize
EXTD=YEAR: 1998
EXTT0=
EXTT1=
EXTT2=
EXTT3=
EXTT4=
EXTT5=
EXTT6=
EXTT7=
EXTT8=
EXTT9=
EXTT10=
EXTT11=
EXTT12=
EXTT13=
EXTT14=
EXTT15=
EXTT16=
EXTT17=
EXTT18=
EXTT19=
PLAYORDER=
